<?xml version="1.0" standalone="no"?>
<!DOCTYPE svg PUBLIC "-//W3C//DTD SVG 20010904//EN"
 "http://www.w3.org/TR/2001/REC-SVG-20010904/DTD/svg10.dtd">
<svg version="1.0" xmlns="http://www.w3.org/2000/svg"
 width="640.000000pt" height="1280.000000pt" viewBox="0 0 640.000000 1280.000000"
 preserveAspectRatio="xMidYMid meet">
<metadata>
Created by potrace 1.15, written by Peter Selinger 2001-2017
</metadata>
<g transform="translate(0.000000,1280.000000) scale(0.100000,-0.100000)"
fill="#2196f3" stroke="none">
<path d="M3270 12794 c-550 -47 -874 -114 -1145 -236 -108 -48 -116 -54 -110
-75 3 -13 10 -56 15 -96 10 -77 32 -226 80 -537 30 -195 49 -367 73 -643 l12
-147 -52 -35 c-76 -51 -154 -134 -188 -201 -27 -53 -30 -68 -30 -154 0 -85 3
-101 28 -148 35 -67 94 -132 171 -189 l60 -44 -2 -242 c-4 -374 -21 -1933 -32
-2827 -5 -443 -10 -910 -10 -1038 l0 -233 -52 -21 c-235 -95 -575 -299 -788
-471 -128 -103 -350 -329 -449 -457 -332 -427 -565 -958 -651 -1480 -96 -591
-10 -1191 255 -1772 155 -341 346 -620 595 -869 294 -295 606 -498 1010 -659
830 -330 1657 -286 2485 134 540 273 972 686 1264 1208 215 384 351 797 413
1248 21 157 16 557 -9 720 -44 281 -123 561 -228 805 -296 691 -751 1179
-1401 1504 l-155 77 0 225 c1 123 6 537 11 919 19 1307 30 2105 36 2642 l7
537 88 65 c145 109 202 205 202 346 1 70 -3 94 -23 134 -32 66 -128 167 -206
218 -35 22 -64 46 -64 52 0 6 5 63 10 126 5 63 28 331 50 595 22 264 45 536
50 605 6 69 13 137 16 153 5 26 2 29 -72 64 -173 79 -407 143 -664 179 -100
14 -505 26 -600 18z m-1061 -1938 c1 -69 6 -99 22 -133 79 -163 431 -310 859
-359 250 -28 626 -14 843 31 259 54 478 171 539 289 24 45 29 128 9 163 -13
26 -15 143 -2 143 18 0 110 -80 145 -125 73 -96 83 -204 31 -311 -60 -123
-265 -246 -551 -328 -382 -111 -970 -120 -1389 -21 -231 54 -477 158 -506 213
-8 13 -15 18 -19 12 -8 -13 -95 54 -126 96 -113 154 -86 320 74 450 l57 47 7
-39 c4 -22 7 -79 7 -128z m1952 -322 c-69 -32 -239 -79 -356 -99 -237 -41
-584 -39 -841 5 -109 19 -269 58 -184 45 178 -27 250 -35 410 -46 161 -10 427
-8 511 5 13 3 56 7 94 11 106 10 256 45 345 81 74 30 88 28 21 -2z m-1814
-330 c43 -20 94 -42 113 -49 l35 -12 -4 -439 c-4 -435 -4 -439 -28 -490 -47
-104 -48 -222 -1 -371 20 -66 21 -81 16 -588 -2 -286 -3 -477 -1 -425 4 121 8
140 33 140 11 0 20 5 20 10 0 6 9 10 19 10 11 0 23 9 26 20 3 11 13 20 21 20
8 0 14 5 14 10 0 6 9 10 20 10 11 0 20 7 20 15 0 8 5 15 11 15 17 0 39 27 39
49 0 12 8 21 20 23 19 3 19 4 -5 57 -14 30 -24 56 -22 58 2 2 28 -48 57 -109
29 -62 64 -135 77 -163 47 -94 102 -253 124 -357 24 -117 22 -242 -5 -316 -8
-24 -83 -142 -167 -263 -161 -235 -234 -371 -287 -539 -31 -98 -75 -308 -87
-417 l-7 -62 -80 -27 c-43 -14 -81 -24 -84 -21 -12 12 20 4247 32 4247 1 0 38
-16 81 -36z m2044 -855 c-6 -459 -16 -1174 -21 -1589 -24 -1935 -22 -1812 -39
-1807 -9 3 -75 26 -146 51 -160 55 -327 97 -505 128 -74 12 -127 24 -117 26 9
2 17 5 17 8 0 2 -24 62 -54 132 -83 199 -117 306 -123 398 -10 140 28 230 172
412 117 148 162 227 175 305 14 89 30 132 110 289 92 180 143 330 143 423 1
73 -24 152 -43 140 -6 -3 -7 0 -4 10 4 11 -17 39 -68 88 -66 66 -93 83 -255
165 -196 100 -249 139 -319 238 -62 87 -86 153 -87 237 0 58 5 77 36 140 33
64 46 79 122 136 47 35 89 69 92 74 3 6 -27 -15 -67 -46 -70 -52 -100 -62
-100 -31 0 8 -4 14 -10 14 -5 0 -10 9 -10 20 0 11 -4 20 -10 20 -5 0 -10 7
-10 15 0 8 -4 15 -10 15 -5 0 -10 7 -10 15 0 10 -10 15 -30 15 -28 0 -30 3
-30 35 0 28 -4 35 -20 35 -16 0 -20 7 -20 35 0 30 -3 35 -24 35 -44 0 -56 10
-56 46 0 27 -4 34 -20 34 -14 0 -20 7 -20 21 0 11 -4 17 -10 14 -5 -3 -10 -4
-10 -1 0 2 25 19 55 36 30 17 55 34 55 36 0 5 -227 -113 -248 -129 -10 -8 -12
35 -12 222 1 170 4 231 13 231 7 0 71 -7 142 -16 86 -11 216 -17 385 -18 271
-1 408 12 595 56 101 23 299 89 354 118 20 10 40 15 44 11 5 -5 3 -384 -2
-842z m-718 -850 c56 -28 115 -61 131 -72 l28 -20 -7 -380 -8 -380 -29 -61
c-16 -34 -26 -51 -23 -38 5 16 2 22 -9 22 -14 0 -16 21 -16 159 0 157 0 159
-21 154 -21 -6 -21 -3 -18 78 1 46 2 121 1 167 l-2 82 -35 0 -35 0 0 80 c0 47
-4 80 -10 80 -6 0 -10 32 -10 75 0 41 -4 75 -8 75 -11 0 -49 29 -39 30 4 0 53
-23 110 -51z m301 -265 c3 -8 2 -12 -4 -9 -6 3 -10 10 -10 16 0 14 7 11 14 -7z
m-237 -826 c-3 -7 -5 -2 -5 12 0 14 2 19 5 13 2 -7 2 -19 0 -25z m-434 -1235
c-18 -2 -48 -2 -65 0 -18 2 -4 4 32 4 36 0 50 -2 33 -4z m204 -9 c-3 -3 -12
-4 -19 -1 -8 3 -5 6 6 6 11 1 17 -2 13 -5z m226 -70 c162 -28 394 -92 563
-155 l54 -20 0 -52 c0 -29 -3 -68 -6 -88 l-6 -36 -72 43 c-125 75 -329 142
-531 174 l-71 11 -26 70 c-30 80 -37 77 95 53z m-1343 -151 l0 -58 -70 -32
c-78 -35 -76 -36 -82 47 l-3 45 75 26 c41 15 76 27 78 28 1 1 2 -25 2 -56z
m1507 -62 c160 -41 333 -111 404 -163 26 -20 26 -21 13 -66 -8 -26 -19 -59
-25 -73 l-10 -27 -62 19 c-34 11 -154 44 -267 75 -290 78 -326 97 -290 156 12
20 20 50 20 79 l0 47 68 -13 c37 -7 104 -23 149 -34z m-1767 -64 c0 -73 -3
-86 -21 -103 -58 -52 -75 -153 -39 -223 30 -60 111 -125 223 -180 92 -44 248
-99 334 -116 29 -6 31 -8 22 -34 -14 -41 -88 -108 -138 -126 -56 -20 -190 -20
-276 0 -142 33 -281 101 -380 186 l-50 43 39 -41 c28 -30 33 -41 21 -40 -12 1
-19 -6 -20 -20 -1 -19 4 -23 29 -25 17 0 -16 -4 -74 -8 -69 -5 -125 -15 -163
-30 -99 -38 -207 -135 -346 -312 l-52 -67 88 -45 c48 -25 85 -45 81 -45 -4 -1
-57 23 -117 53 l-108 54 -108 -222 c-88 -181 -116 -231 -159 -276 -29 -30 -57
-62 -62 -70 -5 -9 -56 -33 -114 -54 -145 -53 -261 -112 -331 -168 -32 -27 -59
-44 -59 -40 0 5 20 67 43 138 237 701 678 1261 1287 1629 105 64 417 222 443
224 4 1 7 -37 7 -82z m2449 -5 c162 -82 323 -182 463 -288 117 -89 386 -352
474 -464 228 -290 437 -695 549 -1065 189 -624 165 -1271 -72 -1910 -104 -281
-307 -644 -480 -859 -116 -143 -372 -393 -488 -476 -30 -21 -9 -1 93 90 51 45
135 129 187 187 562 622 805 1365 730 2228 -20 230 -23 242 -54 213 -11 -11
-11 -9 0 12 22 41 17 158 -9 207 -64 123 -217 228 -482 331 -58 23 -131 48
-163 57 -53 15 -59 20 -81 64 -41 81 -125 150 -231 192 -49 18 -79 23 -162 23
l-102 1 -6 35 c-12 63 -19 69 -71 59 -26 -5 -48 -8 -50 -7 -1 2 -24 32 -50 68
-63 86 -173 192 -270 262 -73 52 -229 136 -282 153 -13 4 -22 9 -19 11 2 3 27
-4 56 -15 39 -16 51 -18 51 -7 0 16 42 36 75 36 14 0 25 4 25 9 0 5 14 14 30
21 17 7 30 16 30 20 0 5 16 14 35 20 19 6 33 16 30 21 -4 5 5 9 19 9 31 0 57
10 51 20 -2 4 13 13 35 20 22 7 37 17 34 21 -3 5 5 9 18 9 13 0 30 5 38 10 13
8 12 11 -5 24 -11 9 -16 16 -12 16 16 0 392 -337 448 -401 126 -146 210 -272
316 -474 41 -79 73 -130 73 -118 0 16 8 25 25 29 14 3 25 10 25 15 0 5 10 9
23 9 12 0 33 9 47 20 14 11 35 20 48 20 12 0 22 6 22 13 0 6 10 1 21 -13 53
-64 -196 381 -269 480 l-25 35 29 -27 c30 -27 54 -36 54 -20 0 5 26 15 57 22
34 7 65 21 76 34 l19 21 35 -40 35 -40 -31 45 c-114 162 -302 364 -476 511
-106 89 -281 203 -297 193 -6 -4 -8 -3 -5 3 4 6 -8 20 -26 31 -19 11 -46 27
-60 37 -15 9 -27 15 -27 12 0 -3 23 -19 50 -37 28 -18 50 -39 50 -47 0 -8 -4
-11 -10 -8 -5 3 -10 0 -10 -8 0 -14 -53 -79 -61 -74 -2 1 12 -11 31 -28 66
-57 85 -77 40 -43 -86 66 -195 135 -242 153 l-48 18 0 54 c0 30 -7 68 -16 84
-12 23 -15 57 -13 140 1 61 7 109 12 109 5 0 71 -31 146 -68z m-2302 -70 c2
-33 1 -34 -8 -13 -8 21 -6 51 3 51 2 0 4 -17 5 -38z m31 -117 c0 -5 -6 4 -13
20 -8 17 -14 37 -14 45 0 8 7 -1 14 -20 7 -19 13 -39 13 -45z m74 -133 c11
-13 11 -14 0 -8 -14 8 -72 106 -72 121 0 6 14 -14 30 -44 16 -29 35 -61 42
-69z m-247 -12 c9 -19 38 -55 64 -79 l46 -44 -48 32 c-62 42 -95 94 -102 156
l-5 50 13 -40 c8 -22 22 -56 32 -75z m78 -15 c-3 -9 -8 -14 -10 -11 -3 3 -2 9
2 15 9 16 15 13 8 -4z m77 -10 c17 -9 30 -18 30 -21 0 -2 -12 2 -27 9 -16 8
-35 17 -43 20 -10 4 -11 6 -2 6 7 1 26 -6 42 -14z m165 -45 c33 -33 57 -60 54
-60 -2 0 -31 27 -64 60 -33 33 -57 60 -54 60 2 0 31 -27 64 -60z m-209 -2 l29
-33 -32 29 c-31 28 -38 36 -30 36 2 0 16 -15 33 -32z m264 -83 c0 -3 -27 8
-60 25 -33 17 -60 33 -60 35 0 3 27 -8 60 -25 33 -17 60 -33 60 -35z m-80 -45
c8 -5 11 -10 5 -10 -5 0 -17 5 -25 10 -8 5 -10 10 -5 10 6 0 17 -5 25 -10z
m227 -32 c-3 -7 -5 -2 -5 12 0 14 2 19 5 13 2 -7 2 -19 0 -25z m1873 -52 c0
-3 -4 -8 -10 -11 -5 -3 -10 -1 -10 4 0 6 5 11 10 11 6 0 10 -2 10 -4z m-683
-282 c-3 -3 -12 -4 -19 -1 -8 3 -5 6 6 6 11 1 17 -2 13 -5z m-100 -20 c-3 -3
-12 -4 -19 -1 -8 3 -5 6 6 6 11 1 17 -2 13 -5z m-150 -20 c-3 -3 -12 -4 -19
-1 -8 3 -5 6 6 6 11 1 17 -2 13 -5z m-3277 -1418 c-35 -162 -43 -292 -37 -570
5 -251 14 -344 50 -511 26 -122 27 -131 7 -73 -10 31 -30 114 -44 182 -74 363
-83 694 -30 1041 22 146 22 146 49 80 l24 -58 -19 -91z"/>
<path d="M3499 9373 c-13 -16 -12 -17 4 -4 9 7 17 15 17 17 0 8 -8 3 -21 -13z"/>
<path d="M2303 5895 c0 -22 2 -30 4 -17 2 12 2 30 0 40 -3 9 -5 -1 -4 -23z"/>
<path d="M1770 5350 c6 -11 13 -20 16 -20 2 0 0 9 -6 20 -6 11 -13 20 -16 20
-2 0 0 -9 6 -20z"/>
</g>
</svg>
