<svg version="1.0" xmlns="http://www.w3.org/2000/svg" width="853.333" height="1706.667" viewBox="0 0 640 1280"><g fill="#2196f3"><path d="M327 .6C272 5.3 239.6 12 212.5 24.2c-10.8 4.8-11.6 5.4-11 7.5.3 1.3 1 5.6 1.5 9.6 1 7.7 3.2 22.6 8 53.7 3 19.5 4.9 36.7 7.3 64.3l1.2 14.7-5.2 3.5c-7.6 5.1-15.4 13.4-18.8 20.1-2.7 5.3-3 6.8-3 15.4 0 8.5.3 10.1 2.8 14.8 3.5 6.7 9.4 13.2 17.1 18.9l6 4.4-.2 24.2c-.4 37.4-2.1 193.3-3.2 282.7-.5 44.3-1 91-1 103.8v23.3l-5.2 2.1c-23.5 9.5-57.5 29.9-78.8 47.1-12.8 10.3-35 32.9-44.9 45.7-33.2 42.7-56.5 95.8-65.1 148-9.6 59.1-1 119.1 25.5 177.2 15.5 34.1 34.6 62 59.5 86.9 29.4 29.5 60.6 49.8 101 65.9 83 33 165.7 28.6 248.5-13.4 54-27.3 97.2-68.6 126.4-120.8 21.5-38.4 35.1-79.7 41.3-124.8 2.1-15.7 1.6-55.7-.9-72-4.4-28.1-12.3-56.1-22.8-80.5-29.6-69.1-75.1-117.9-140.1-150.4l-15.5-7.7v-22.5c.1-12.3.6-53.7 1.1-91.9 1.9-130.7 3-210.5 3.6-264.2l.7-53.7 8.8-6.5c14.5-10.9 20.2-20.5 20.2-34.6.1-7-.3-9.4-2.3-13.4-3.2-6.6-12.8-16.7-20.6-21.8-3.5-2.2-6.4-4.6-6.4-5.2 0-.6.5-6.3 1-12.6s2.8-33.1 5-59.5 4.5-53.6 5-60.5c.6-6.9 1.3-13.7 1.6-15.3.5-2.6.2-2.9-7.2-6.4C436.1 12.4 412.7 6 387 2.4 377 1 336.5-.2 327 .6zM220.9 194.4c.1 6.9.6 9.9 2.2 13.3 7.9 16.3 43.1 31 85.9 35.9 25 2.8 62.6 1.4 84.3-3.1 25.9-5.4 47.8-17.1 53.9-28.9 2.4-4.5 2.9-12.8.9-16.3-1.3-2.6-1.5-14.3-.2-14.3 1.8 0 11 8 14.5 12.5 7.3 9.6 8.3 20.4 3.1 31.1-6 12.3-26.5 24.6-55.1 32.8-38.2 11.1-97 12-138.9 2.1-23.1-5.4-47.7-15.8-50.6-21.3-.8-1.3-1.5-1.8-1.9-1.2-.8 1.3-9.5-5.4-12.6-9.6-11.3-15.4-8.6-32 7.4-45l5.7-4.7.7 3.9c.4 2.2.7 7.9.7 12.8zm195.2 32.2c-6.9 3.2-23.9 7.9-35.6 9.9-23.7 4.1-58.4 3.9-84.1-.5-10.9-1.9-26.9-5.8-18.4-4.5 17.8 2.7 25 3.5 41 4.6 16.1 1 42.7.8 51.1-.5 1.3-.3 5.6-.7 9.4-1.1 10.6-1 25.6-4.5 34.5-8.1 7.4-3 8.8-2.8 2.1.2zm-181.4 33c4.3 2 9.4 4.2 11.3 4.9l3.5 1.2-.4 43.9c-.4 43.5-.4 43.9-2.8 49-4.7 10.4-4.8 22.2-.1 37.1 2 6.6 2.1 8.1 1.6 58.8-.2 28.6-.3 47.7-.1 42.5.4-12.1.8-14 3.3-14 1.1 0 2-.5 2-1 0-.6.9-1 1.9-1 1.1 0 2.3-.9 2.6-2 .3-1.1 1.3-2 2.1-2s1.4-.5 1.4-1c0-.6.9-1 2-1s2-.7 2-1.5.5-1.5 1.1-1.5c1.7 0 3.9-2.7 3.9-4.9 0-1.2.8-2.1 2-2.3 1.9-.3 1.9-.4-.5-5.7-1.4-3-2.4-5.6-2.2-5.8.2-.2 2.8 4.8 5.7 10.9 2.9 6.2 6.4 13.5 7.7 16.3 4.7 9.4 10.2 25.3 12.4 35.7 2.4 11.7 2.2 24.2-.5 31.6-.8 2.4-8.3 14.2-16.7 26.3-16.1 23.5-23.4 37.1-28.7 53.9-3.1 9.8-7.5 30.8-8.7 41.7l-.7 6.2-8 2.7c-4.3 1.4-8.1 2.4-8.4 2.1-1.2-1.2 2-424.7 3.2-424.7.1 0 3.8 1.6 8.1 3.6zm204.4 85.5c-.6 45.9-1.6 117.4-2.1 158.9-2.4 193.5-2.2 181.2-3.9 180.7-.9-.3-7.5-2.6-14.6-5.1-16-5.5-32.7-9.7-50.5-12.8-7.4-1.2-12.7-2.4-11.7-2.6.9-.2 1.7-.5 1.7-.8 0-.2-2.4-6.2-5.4-13.2-8.3-19.9-11.7-30.6-12.3-39.8-1-14 2.8-23 17.2-41.2 11.7-14.8 16.2-22.7 17.5-30.5 1.4-8.9 3-13.2 11-28.9 9.2-18 14.3-33 14.3-42.3.1-7.3-2.4-15.2-4.3-14-.6.3-.7 0-.4-1 .4-1.1-1.7-3.9-6.8-8.8-6.6-6.6-9.3-8.3-25.5-16.5-19.6-10-24.9-13.9-31.9-23.8-6.2-8.7-8.6-15.3-8.7-23.7 0-5.8.5-7.7 3.6-14 3.3-6.4 4.6-7.9 12.2-13.6 4.7-3.5 8.9-6.9 9.2-7.4.3-.6-2.7 1.5-6.7 4.6-7 5.2-10 6.2-10 3.1 0-.8-.4-1.4-1-1.4-.5 0-1-.9-1-2s-.4-2-1-2c-.5 0-1-.7-1-1.5s-.4-1.5-1-1.5c-.5 0-1-.7-1-1.5 0-1-1-1.5-3-1.5-2.8 0-3-.3-3-3.5 0-2.8-.4-3.5-2-3.5s-2-.7-2-3.5c0-3-.3-3.5-2.4-3.5-4.4 0-5.6-1-5.6-4.6 0-2.7-.4-3.4-2-3.4-1.4 0-2-.7-2-2.1 0-1.1-.4-1.7-1-1.4-.5.3-1 .4-1 .1 0-.2 2.5-1.9 5.5-3.6 3-1.7 5.5-3.4 5.5-3.6 0-.5-22.7 11.3-24.8 12.9-1 .8-1.2-3.5-1.2-22.2.1-17 .4-23.1 1.3-23.1.7 0 7.1.7 14.2 1.6 8.6 1.1 21.6 1.7 38.5 1.8 27.1.1 40.8-1.2 59.5-5.6 10.1-2.3 29.9-8.9 35.4-11.8 2-1 4-1.5 4.4-1.1.5.5.3 38.4-.2 84.2zm-71.8 85c5.6 2.8 11.5 6.1 13.1 7.2l2.8 2-.7 38-.8 38-2.9 6.1c-1.6 3.4-2.6 5.1-2.3 3.8.5-1.6.2-2.2-.9-2.2-1.4 0-1.6-2.1-1.6-15.9 0-15.7 0-15.9-2.1-15.4-2.1.6-2.1.3-1.8-7.8.1-4.6.2-12.1.1-16.7l-.2-8.2h-7v-8c0-4.7-.4-8-1-8s-1-3.2-1-7.5c0-4.1-.4-7.5-.8-7.5-1.1 0-4.9-2.9-3.9-3 .4 0 5.3 2.3 11 5.1zm30.1 26.5c.3.8.2 1.2-.4.9-.6-.3-1-1-1-1.6 0-1.4.7-1.1 1.4.7zm-23.7 82.6c-.3.7-.5.2-.5-1.2s.2-1.9.5-1.3c.2.7.2 1.9 0 2.5zm-43.4 123.5c-1.8.2-4.8.2-6.5 0-1.8-.2-.4-.4 3.2-.4s5 .2 3.3.4zm20.4.9c-.3.3-1.2.4-1.9.1-.8-.3-.5-.6.6-.6 1.1-.1 1.7.2 1.3.5zm22.6 7c16.2 2.8 39.4 9.2 56.3 15.5l5.4 2v5.2c0 2.9-.3 6.8-.6 8.8l-.6 3.6-7.2-4.3c-12.5-7.5-32.9-14.2-53.1-17.4l-7.1-1.1-2.6-7c-3-8-3.7-7.7 9.5-5.3zM239 685.7v5.8l-7 3.2c-7.8 3.5-7.6 3.6-8.2-4.7l-.3-4.5 7.5-2.6c4.1-1.5 7.6-2.7 7.8-2.8.1-.1.2 2.5.2 5.6zm150.7 6.2c16 4.1 33.3 11.1 40.4 16.3 2.6 2 2.6 2.1 1.3 6.6-.8 2.6-1.9 5.9-2.5 7.3l-1 2.7-6.2-1.9c-3.4-1.1-15.4-4.4-26.7-7.5-29-7.8-32.6-9.7-29-15.6 1.2-2 2-5 2-7.9v-4.7l6.8 1.3c3.7.7 10.4 2.3 14.9 3.4zM213 698.3c0 7.3-.3 8.6-2.1 10.3-5.8 5.2-7.5 15.3-3.9 22.3 3 6 11.1 12.5 22.3 18 9.2 4.4 24.8 9.9 33.4 11.6 2.9.6 3.1.8 2.2 3.4-1.4 4.1-8.8 10.8-13.8 12.6-5.6 2-19 2-27.6 0-14.2-3.3-28.1-10.1-38-18.6l-5-4.3 3.9 4.1c2.8 3 3.3 4.1 2.1 4-1.2-.1-1.9.6-2 2-.1 1.9.4 2.3 2.9 2.5 1.7 0-1.6.4-7.4.8-6.9.5-12.5 1.5-16.3 3-9.9 3.8-20.7 13.5-34.6 31.2l-5.2 6.7 8.8 4.5c4.8 2.5 8.5 4.5 8.1 4.5-.4.1-5.7-2.3-11.7-5.3l-10.8-5.4-10.8 22.2c-8.8 18.1-11.6 23.1-15.9 27.6-2.9 3-5.7 6.2-6.2 7-.5.9-5.6 3.3-11.4 5.4-14.5 5.3-26.1 11.2-33.1 16.8-3.2 2.7-5.9 4.4-5.9 4 0-.5 2-6.7 4.3-13.8C63 805.3 107.1 749.3 168 712.5c10.5-6.4 41.7-22.2 44.3-22.4.4-.1.7 3.7.7 8.2zm244.9.5c16.2 8.2 32.3 18.2 46.3 28.8 11.7 8.9 38.6 35.2 47.4 46.4 22.8 29 43.7 69.5 54.9 106.5 18.9 62.4 16.5 127.1-7.2 191-10.4 28.1-30.7 64.4-48 85.9-11.6 14.3-37.2 39.3-48.8 47.6-3 2.1-.9.1 9.3-9 5.1-4.5 13.5-12.9 18.7-18.7 56.2-62.2 80.5-136.5 73-222.8-2-23-2.3-24.2-5.4-21.3-1.1 1.1-1.1.9 0-1.2 2.2-4.1 1.7-15.8-.9-20.7-6.4-12.3-21.7-22.8-48.2-33.1-5.8-2.3-13.1-4.8-16.3-5.7-5.3-1.5-5.9-2-8.1-6.4-4.1-8.1-12.5-15-23.1-19.2-4.9-1.8-7.9-2.3-16.2-2.3l-10.2-.1-.6-3.5c-1.2-6.3-1.9-6.9-7.1-5.9-2.6.5-4.8.8-5 .7-.1-.2-2.4-3.2-5-6.8-6.3-8.6-17.3-19.2-27-26.2-7.3-5.2-22.9-13.6-28.2-15.3-1.3-.4-2.2-.9-1.9-1.1.2-.3 2.7.4 5.6 1.5 3.9 1.6 5.1 1.8 5.1.7 0-1.6 4.2-3.6 7.5-3.6 1.4 0 2.5-.4 2.5-.9s1.4-1.4 3-2.1c1.7-.7 3-1.6 3-2 0-.5 1.6-1.4 3.5-2 1.9-.6 3.3-1.6 3-2.1-.4-.5.5-.9 1.9-.9 3.1 0 5.7-1 5.1-2-.2-.4 1.3-1.3 3.5-2s3.7-1.7 3.4-2.1c-.3-.5.5-.9 1.8-.9s3-.5 3.8-1c1.3-.8 1.2-1.1-.5-2.4-1.1-.9-1.6-1.6-1.2-1.6 1.6 0 39.2 33.7 44.8 40.1 12.6 14.6 21 27.2 31.6 47.4 4.1 7.9 7.3 13 7.3 11.8 0-1.6.8-2.5 2.5-2.9 1.4-.3 2.5-1 2.5-1.5s1-.9 2.3-.9c1.2 0 3.3-.9 4.7-2 1.4-1.1 3.5-2 4.8-2 1.2 0 2.2-.6 2.2-1.3 0-.6 1-.1 2.1 1.3 5.3 6.4-19.6-38.1-26.9-48l-2.5-3.5 2.9 2.7c3 2.7 5.4 3.6 5.4 2 0-.5 2.6-1.5 5.7-2.2 3.4-.7 6.5-2.1 7.6-3.4l1.9-2.1 3.5 4 3.5 4-3.1-4.5c-11.4-16.2-30.2-36.4-47.6-51.1-10.6-8.9-28.1-20.3-29.7-19.3-.6.4-.8.3-.5-.3.4-.6-.8-2-2.6-3.1-1.9-1.1-4.6-2.7-6-3.7-1.5-.9-2.7-1.5-2.7-1.2 0 .3 2.3 1.9 5 3.7 2.8 1.8 5 3.9 5 4.7 0 .8-.4 1.1-1 .8-.5-.3-1 0-1 .8 0 1.4-5.3 7.9-6.1 7.4-.2-.1 1.2 1.1 3.1 2.8 6.6 5.7 8.5 7.7 4 4.3-8.6-6.6-19.5-13.5-24.2-15.3l-4.8-1.8v-5.4c0-3-.7-6.8-1.6-8.4-1.2-2.3-1.5-5.7-1.3-14 .1-6.1.7-10.9 1.2-10.9s7.1 3.1 14.6 6.8zm-230.2 7c.2 3.3.1 3.4-.8 1.3-.8-2.1-.6-5.1.3-5.1.2 0 .4 1.7.5 3.8zm3.1 11.7c0 .5-.6-.4-1.3-2-.8-1.7-1.4-3.7-1.4-4.5 0-.8.7.1 1.4 2s1.3 3.9 1.3 4.5zm7.4 13.3c1.1 1.3 1.1 1.4 0 .8-1.4-.8-7.2-10.6-7.2-12.1 0-.6 1.4 1.4 3 4.4 1.6 2.9 3.5 6.1 4.2 6.9zm-24.7 1.2c.9 1.9 3.8 5.5 6.4 7.9l4.6 4.4-4.8-3.2c-6.2-4.2-9.5-9.4-10.2-15.6l-.5-5 1.3 4c.8 2.2 2.2 5.6 3.2 7.5zm7.8 1.5c-.3.9-.8 1.4-1 1.1-.3-.3-.2-.9.2-1.5.9-1.6 1.5-1.3.8.4zm7.7 1c1.7.9 3 1.8 3 2.1 0 .2-1.2-.2-2.7-.9-1.6-.8-3.5-1.7-4.3-2-1-.4-1.1-.6-.2-.6.7-.1 2.6.6 4.2 1.4zm16.5 4.5c3.3 3.3 5.7 6 5.4 6-.2 0-3.1-2.7-6.4-6-3.3-3.3-5.7-6-5.4-6 .2 0 3.1 2.7 6.4 6zm-20.9.2 2.9 3.3-3.2-2.9c-3.1-2.8-3.8-3.6-3-3.6.2 0 1.6 1.5 3.3 3.2zm26.4 8.3c0 .3-2.7-.8-6-2.5s-6-3.3-6-3.5c0-.3 2.7.8 6 2.5s6 3.3 6 3.5zm-8 4.5c.8.5 1.1 1 .5 1-.5 0-1.7-.5-2.5-1s-1-1-.5-1c.6 0 1.7.5 2.5 1zm22.7 3.2c-.3.7-.5.2-.5-1.2s.2-1.9.5-1.3c.2.7.2 1.9 0 2.5zm187.3 5.2c0 .3-.4.8-1 1.1-.5.3-1 .1-1-.4 0-.6.5-1.1 1-1.1.6 0 1 .2 1 .4zm-68.3 28.2c-.3.3-1.2.4-1.9.1-.8-.3-.5-.6.6-.6 1.1-.1 1.7.2 1.3.5zm-10 2c-.3.3-1.2.4-1.9.1-.8-.3-.5-.6.6-.6 1.1-.1 1.7.2 1.3.5zm-15 2c-.3.3-1.2.4-1.9.1-.8-.3-.5-.6.6-.6 1.1-.1 1.7.2 1.3.5zM32 934.4c-3.5 16.2-4.3 29.2-3.7 57 .5 25.1 1.4 34.4 5 51.1 2.6 12.2 2.7 13.1.7 7.3-1-3.1-3-11.4-4.4-18.2-7.4-36.3-8.3-69.4-3-104.1 2.2-14.6 2.2-14.6 4.9-8l2.4 5.8-1.9 9.1z"/><path d="M349.9 342.7c-1.3 1.6-1.2 1.7.4.4.9-.7 1.7-1.5 1.7-1.7 0-.8-.8-.3-2.1 1.3zM230.3 690.5c0 2.2.2 3 .4 1.7.2-1.2.2-3 0-4-.3-.9-.5.1-.4 2.3zM177 745c.6 1.1 1.3 2 1.6 2 .2 0 0-.9-.6-2s-1.3-2-1.6-2c-.2 0 0 .9.6 2z"/></g></svg>