<svg version="1.0" xmlns="http://www.w3.org/2000/svg" width="590.667" height="1706.667" viewBox="0 0 443 1280"><path d="M211 3c0 1.6 1.6 5.9 3.6 9.5 3.2 5.8 3.6 7.2 3 11.3-.3 2.5-2.6 8.7-5 13.7-6 12.3-6.9 16.2-6.9 29 0 12.7.9 16.4 7 29.9l4.6 9.9-1.6 4.6c-.9 2.5-3.7 9.8-6.4 16.1l-4.7 11.5-.6 16.4-.5 16.3-5 1.9c-5.9 2.3-8.7 2-17.2-2-7-3.3-8.7-5.7-9.7-13.8-.8-6.4-3.9-15.5-6.5-19.2-3.3-4.6-7.7-6.1-17.8-6.1-16.1 0-24.6-4.5-27.2-14.2-3.5-13.4-13.4-20.3-25.7-17.8-4.5 1-5.4 1.5-5.4 3.3 0 3.6 1.2 4.4 6.9 4.9 4.7.5 6 1.1 8.7 4.1 2.8 3 3.3 4.4 3.8 10.3 1.9 20.7 8.7 29.2 27 33.4 5.9 1.3 10 2.8 11.1 4 1.1 1.2 2.3 5.4 3.1 11.2 2.4 16.2 3.7 19.2 11.3 27 6.8 6.9 6.8 6.9 5.8 10.7-1 3.7-1.3 3.9-11 7.5-5.5 2-12.7 4-16.1 4.3-5.5.5-7 .2-15.7-3.5-10.7-4.5-17.7-6.2-24.9-6.2-6.5 0-8.4.8-20.6 9-15.4 10.2-24.1 12.1-37.4 7.9-7.6-2.4-18.7-2.9-24.6-1.1-5 1.5-11.5 5.8-14.5 9.5-2.2 2.9-2.2 2.9-.2 4.9 2 2 2 2 6.7-1.4 4.3-3 5.4-3.3 11.9-3.3 6.7 0 8.1.4 18.7 5.5l11.5 5.5h25l11.5-5.3c14.4-6.5 16.3-6.6 28.9-.8 17.6 8.1 21 8.9 34.2 8.3 6.4-.3 12.7-1 13.9-1.7 3.2-1.7 4.1-.2 4.3 6.6.2 4.8-.4 7.2-3.1 12.9-4.2 8.8-5.6 10.3-10.1 11-15.1 2.4-23.4 6.3-26.4 12.2-.8 1.6-1.7 7.9-2.2 14.8-1 17.8-3.2 21.7-14.6 26-8.4 3.2-11.3 5.5-14.1 10.8-2.9 5.5-3 16.3-.2 20.4l1.9 2.8.8-6.3c.7-4.9 1.5-6.9 3.8-9.1 3.1-3.2 9.8-5.1 17.5-5.1 8.2 0 18.5-7.1 21.8-15 .8-1.9 2.2-7.1 3.1-11.5 2.2-11.1 3.4-12.2 16.5-14.1 5.8-.8 12.3-2.3 14.5-3.3 4.2-1.9 15.5-12.7 15.5-14.9 0-.6.6-1.2 1.3-1.2 1.4 0 10.3 3.3 11.2 4.2.3.3-1.1 2-3.2 3.8-5.8 5-6.2 6.4-6.3 18.3 0 10.1.1 10.9 2.5 13.2 1.3 1.4 3.3 2.5 4.5 2.5 1.1 0 2.3.7 2.7 1.7.3.9-1.5 10-4.2 20.2-9.9 38.7-9 63.2 3.9 108.1l3.5 12-2.9 9.8c-4.8 15.9-8.7 35.9-9.9 49.7-1.9 21.6.9 44.3 9.1 74.5l3.2 11.4-3.2 12.6c-7.4 28.8-9.8 48.1-8.7 69 .7 13.5 4.8 36.9 9.1 52.3l2.7 9.7-3.1 12.2c-6.5 25.6-7.6 34.2-7.6 59.3.1 21.1.3 24.1 2.8 36.5 1.5 7.4 3.9 17.8 5.3 23.2l2.5 9.6-2.5 9.9c-6.7 25.9-9.3 51.2-7.7 74 .9 12.6 5.9 41.6 8.9 52 .7 2.4.4 5.1-1 10.5-1 4-3.1 13.8-4.5 21.8-2.5 13.2-2.7 16.7-2.7 38.5.1 24.9.9 32.7 7 60.8 1.4 6.7 1.5 8.7.4 13.5-4.5 20.5-8.4 50.8-8.5 67.4-.1 9.3 0 9.8 2.8 12.7 1.5 1.6 4 3.2 5.4 3.6 3.4.8 4.2 2.1 4.2 6.6 0 3 .6 3.9 4.6 6.7l4.6 3.3 4.6-2.9c4.2-2.6 4.8-3.3 5.2-7.2.5-4.1.9-4.6 5.4-6.9 6.5-3.3 7.9-6.7 7.3-17.5-1-18.1-4.5-40.8-8.8-57.8-2.5-10.1-2.4-16.9.5-28.6 10.2-40.5 10.3-66.3.5-105.4-1.6-6.4-2.9-13.5-2.9-15.8 0-2.3 1.5-10.3 3.4-17.8 7.2-28.8 8.8-42.3 7.4-62.7-.8-13.2-2.1-20.4-7.6-43.3l-3.6-15.4 2.8-10.6c1.6-5.9 4.2-16.8 5.9-24.2 2.9-12.8 3-14.7 3.1-36 0-24.9-.8-30.8-8.1-57.6l-3.5-13 3.1-11c13.3-47 13.6-73.7 1.4-119.1l-3.5-13.2 3.5-12.3c8.2-28.5 11.3-51.6 9.6-73.3-1-14.2-5.4-36.9-9.7-51l-2.8-9 2.8-9.5c14.5-49.2 14.9-82.3 1.2-129.2-.4-1.3.4-1.8 3.3-2.4 2.1-.4 4.1-1.2 4.5-1.8.4-.6.8-6 .8-11.9 0-12.1-1.2-16.2-6.2-21.4l-3.1-3.3 3.9-1.7c5.7-2.5 11-2.1 18.1 1.1 8.6 3.9 10 5.7 11.7 15.4 1.8 10.5 5.5 18.6 9.6 21.1 2.3 1.4 6 2.1 13.8 2.6 18.8 1.2 22.4 3.1 26.8 14.6 4.8 12.7 11.8 17.8 23 16.6 5.7-.6 8.4-2 8.4-4.3 0-1-1.5-1.4-5.3-1.4-4.5 0-5.7-.4-7.9-2.8-3.9-4.2-4.6-6.1-5.7-16.4-1-10.5-2.4-13.9-7.7-19.8-3.7-4.1-10-6.7-21.6-9-7.2-1.4-9.4-4-10.3-11.8-1.2-10.8-2.7-17.6-4.5-21.1-1.8-3.5-12.3-14.4-14.7-15.2-1-.3-1-1.2-.1-4.1 1-3.5 1.7-4 8.7-6.7 8.9-3.4 18.8-6.1 22.5-6.1 1.4 0 6.8 1.7 11.9 3.9 10.8 4.4 17.6 6.1 25.2 6.1 7 0 9.2-.9 19.6-8 4.7-3.3 11-6.9 14-8.1 7-2.8 16.5-2.9 23.9-.4 8.3 2.9 21.9 2.7 28.7-.4 5.4-2.4 15.9-12.3 14.8-14-.3-.5-3.1.6-6.3 2.6-5.4 3.3-6 3.4-13.2 3-6.6-.4-8.8-1.1-18.5-5.8l-10.9-5.4h-25.1L357 219c-13.7 6.5-17.8 7-26.2 2.6-8.4-4.4-19-8.4-25.4-9.5-5.8-1-24-.2-27.6 1.3-1.2.6-1.8 0-2.3-2.6-.3-1.8-1.1-4.5-1.6-5.9-.9-2.2-.5-4.1 2.2-10.4 3.8-9.1 5.7-10.6 16.2-12.5 17.7-3.1 23.7-10.3 23.7-28.4 0-4.5.5-9.9 1.1-12.1 1.5-5.4 6.7-10 13.5-12 11-3.2 17.4-13.4 17.4-27.6 0-6.3-1.2-10.1-2.6-8.6-.4.4-1.1 3.5-1.6 6.9-.4 3.3-1.3 6.7-1.9 7.4-2.1 2.6-8.6 4.7-16.6 5.5-8.8.9-12.4 2.3-18.5 7.1-4.7 3.6-7.3 9.2-9.8 20.4-2.1 9.9-4.4 12.9-10.3 13.8-14.2 2.1-18.7 3-22.3 4.7-3.9 1.9-14.6 11.9-15.5 14.7-.3.9-1.9.6-6.4-1.1l-6-2.3-3.2-8.9c-5-14.3-5.1-16.7-.9-26.8 4.8-11.4 6.6-19.5 6.6-29.5 0-9.2-.8-11.5-8.6-23.3-7-10.6-8.8-15.4-8.8-23.4 0-3.9.8-9.5 1.8-12.5 2.5-7.9 1.8-27.6-1.1-34.1-2-4.4-8.6-11.9-10.5-11.9-.4 0-.8 1.3-.8 3z" fill="#f44336"/></svg>